<?xml version="1.0" encoding="utf-8"?>
<!-- Generator: Adobe Illustrator 16.0.3, SVG Export Plug-In . SVG Version: 6.00 Build 0)  -->
<!DOCTYPE svg PUBLIC "-//W3C//DTD SVG 1.1//EN" "http://www.w3.org/Graphics/SVG/1.1/DTD/svg11.dtd">
<svg version="1.1" id="Layer_1" xmlns="http://www.w3.org/2000/svg" xmlns:xlink="http://www.w3.org/1999/xlink" x="0px" y="0px"
	 width="20px" height="20px" viewBox="0 0 20 20" enable-background="new 0 0 20 20" xml:space="preserve">
<g id="quote" display="none">
	<g display="inline">
		<path fill="#231F20" d="M8.227,4.193C8.157,4.115,8.07,4.072,7.989,4.015C7.46,3.55,6.773,3.261,6.014,3.261
			C4.348,3.261,3,4.61,3,6.275C3,7.914,4.31,9.24,5.937,9.281c-0.293,0.375-0.64,0.752-1.097,1.131
			c-0.559,0.467-0.633,1.293-0.169,1.854c0.258,0.314,0.633,0.475,1.013,0.475c0.295,0,0.592-0.102,0.84-0.305
			c1.745-1.451,2.695-3.039,2.82-4.717C9.497,5.681,8.357,4.34,8.227,4.193z"/>
		<path fill="#231F20" d="M15.869,4.193c-0.069-0.078-0.157-0.122-0.238-0.178c-0.527-0.465-1.217-0.754-1.975-0.754
			c-1.666,0-3.014,1.349-3.014,3.014c0,1.638,1.309,2.965,2.937,3.006c-0.293,0.375-0.64,0.752-1.097,1.131
			c-0.561,0.467-0.633,1.293-0.17,1.854c0.258,0.314,0.633,0.475,1.014,0.475c0.297,0,0.592-0.102,0.84-0.305
			c1.745-1.451,2.695-3.039,2.82-4.717C17.139,5.682,16,4.341,15.869,4.193z"/>
	</g>
</g>
<g id="link" display="none">
	<g display="inline">
		<path fill="#231F20" d="M14.334,10.121c0,0.717-0.648,1.299-1.449,1.299H7.094c-0.799,0-1.447-0.582-1.447-1.299l0,0
			c0-0.717,0.646-1.299,1.447-1.299h5.791C13.686,8.822,14.334,9.404,14.334,10.121L14.334,10.121z"/>
		<path fill="#231F20" d="M8.574,14.646H4.833C1.942,14.646,0,12.777,0,10c0-2.778,1.942-4.646,4.833-4.646h3.741
			c0.569,0,1.029,0.462,1.029,1.032c0,0.57-0.46,1.032-1.029,1.032H4.833c-0.834,0-2.775,0.252-2.775,2.581s1.941,2.581,2.775,2.581
			h3.741c0.569,0,1.029,0.462,1.029,1.031C9.603,14.182,9.144,14.646,8.574,14.646z"/>
		<path fill="#231F20" d="M11.426,5.354h3.74C18.057,5.354,20,7.222,20,10c0,2.777-1.943,4.646-4.834,4.646h-3.74
			c-0.57,0-1.029-0.463-1.029-1.032c0-0.57,0.458-1.032,1.029-1.032h3.74c0.834,0,2.775-0.252,2.775-2.581S16,7.419,15.166,7.419
			h-3.74c-0.57,0-1.029-0.462-1.029-1.032C10.397,5.817,10.855,5.354,11.426,5.354z"/>
	</g>
</g>
<g id="follow" display="none">
	<path display="inline" fill="#231F20" d="M10.101,13.775l0.678,2.263L16.494,3.48L3.923,9.186l2.822,0.847
		c0.546,0.323-0.183,1.636-1.704,1.386l-3.109-1.001L1.62,10.323C1.256,10.138,1,9.771,1,9.335C1,8.884,1.271,8.5,1.656,8.323
		L1.708,8.3l15.694-7.186l0.072-0.033C17.602,1.032,17.736,1,17.879,1C18.498,1,19,1.501,19,2.119c0,0.1-0.031,0.188-0.057,0.279
		l-0.157,0.343l-7.052,15.368l-0.209,0.451C11.32,18.822,11.018,19,10.659,19c-0.453,0-0.837-0.271-1.014-0.657
		c-0.019-0.041-0.025-0.086-0.039-0.128l-0.924-3.072c0,0-0.024-0.067-0.027-0.093C8.547,14.313,9.375,13.016,10.101,13.775z"/>
</g>
<g id="copy" display="none">
	<g display="inline">
		<path fill="#231F20" d="M15.4,19H4.33C2.494,19,1,17.73,1,15.745v-10.8c0-0.496,0.503-0.9,1-0.9c0.498,0,1,0.404,1,0.9v10.8
			C3,16.739,3.486,17,4.33,17H15.4c0.498,0,0.898,0.502,0.898,1S15.898,19,15.4,19z"/>
		<path fill="#231F20" d="M19,11.398C19,13.389,17.389,15,15.4,15H8.6C6.612,15,5,13.389,5,11.398V4.601C5,2.612,6.612,1,8.6,1h6.8
			C17.389,1,19,2.612,19,4.601V11.398z M17,4.801C17,3.806,16.193,3,15.199,3H8.801C7.806,3,7,3.806,7,4.801v6.398
			C7,12.193,7.806,13,8.801,13h6.398C16.193,13,17,12.193,17,11.199V4.801z"/>
	</g>
</g>
<g id="close" display="none">
	<path display="inline" fill="#231F20" d="M11.4,10l6.303-6.301c0.396-0.4,0.396-1,0-1.4c-0.4-0.398-1-0.398-1.4,0L10,8.599
		l-6.3-6.3c-0.399-0.398-1-0.398-1.399,0c-0.401,0.4-0.401,1,0,1.4L8.6,10l-6.299,6.301c-0.401,0.398-0.401,1,0,1.398
		C2.5,17.9,2.801,18,3,18c0.301,0,0.5-0.1,0.7-0.301L10,11.4l6.303,6.299C16.501,17.9,16.803,18,17.001,18
		c0.302,0,0.5-0.1,0.7-0.301c0.398-0.398,0.398-1,0-1.398L11.4,10z"/>
</g>
<g id="clear" display="none">
	<path display="inline" fill="#231F20" d="M18.1,19H1.9C1.403,19,1,18.498,1,18s0.403-1,0.9-1h16.2c0.498,0,0.9,0.502,0.9,1
		S18.598,19,18.1,19z"/>
	<g display="inline">
		<polygon fill="none" points="12.182,3.668 3.365,12.911 4.297,13.938 10.415,13.959 16.568,7.967 		"/>
		<path fill="#231F20" d="M18.697,8.67C18.891,8.482,19,8.209,19,7.939c0-0.269-0.107-0.558-0.3-0.746l-5.843-5.785
			C12.67,1.225,12.419,1,12.157,1c-0.007,0-0.013,0-0.017,0c-0.27,0-0.522,0.24-0.707,0.434L1.276,12.207
			c-0.362,0.38-0.369,0.977-0.017,1.363l1.853,2.095C3.249,15.814,3.433,16,3.627,16h7.579c0.114,0,0.222-0.176,0.312-0.264
			L18.697,8.67z M4.297,13.938l-0.932-1.025l8.817-9.243l4.387,4.298l-6.152,5.992L4.297,13.938z"/>
		<path fill="#231F20" d="M3.849,16.004L10.816,16c0.002,0,0.002,0,0.004,0c0.134,0,0.265,0,0.386,0H3.627
			C3.701,16,3.772,16.003,3.849,16.004z"/>
	</g>
</g>
<g id="italic" display="none">
	<path display="inline" fill="#231F20" d="M10,17.25c-0.553,0-1-0.447-1-1V3.75c0-0.552,0.447-1,1-1c0.553,0,1,0.448,1,1v12.5
		C11,16.803,10.553,17.25,10,17.25z"/>
</g>
<g id="bold" display="none">
	<g display="inline">
		<path fill="#231F20" d="M5.919,17.25c-0.553,0-1-0.447-1-1V3.75c0-0.552,0.447-1,1-1c0.553,0,1,0.448,1,1v12.5
			C6.919,16.803,6.472,17.25,5.919,17.25z"/>
		<path fill="#231F20" d="M13.423,9.524c0.854-0.703,1.402-1.712,1.402-2.846c0-1.114-0.421-2.104-1.187-2.787
			C12.654,3.01,11.199,2.67,9.288,2.883C8.74,2.944,8.345,3.439,8.406,3.988C8.469,4.536,8.959,4.936,9.511,4.87
			c1.29-0.144,2.258,0.033,2.795,0.513c0.428,0.383,0.519,0.917,0.519,1.296c0,1.013-0.979,1.837-2.181,1.837
			c-0.285,0-0.54,0.123-0.723,0.313C9.737,9.012,9.621,9.263,9.621,9.542c0,0.553,0.447,1,1,1c1.354,0,2.459,1.034,2.459,2.306
			c0,0.508-0.116,1.213-0.669,1.705c-0.604,0.536-1.653,0.734-3.025,0.568c-0.564-0.063-1.047,0.327-1.112,0.875
			C8.21,16.544,8.6,17.042,9.149,17.107c0.397,0.047,0.777,0.072,1.141,0.072c1.446,0,2.604-0.381,3.45-1.133
			c0.863-0.77,1.342-1.902,1.342-3.197C15.082,11.503,14.428,10.314,13.423,9.524z"/>
	</g>
</g>
<g id="headline" display="none">
	<g display="inline">
		<path fill="#231F20" d="M13.667,2.813c-0.554,0-1,0.448-1,1v12.375c0,0.555,0.446,1,1,1s1-0.445,1-1V3.813
			C14.667,3.261,14.221,2.813,13.667,2.813z"/>
		<path fill="#231F20" d="M10.833,9.063h-3.5v-5.25c0-0.552-0.447-1-1-1s-1,0.448-1,1v12.375c0,0.555,0.447,1,1,1s1-0.445,1-1
			v-5.125h3.5c0.554,0,1-0.445,1-1C11.833,9.511,11.387,9.063,10.833,9.063z"/>
	</g>
</g>
<g id="h1">
	<g>
		<g>
			<path fill="#231F20" d="M10.807,3.448c-0.525,0-0.95,0.425-0.95,0.949v11.75c0,0.525,0.426,0.948,0.95,0.948
				c0.524,0,0.95-0.425,0.95-0.948V4.398C11.757,3.874,11.33,3.448,10.807,3.448z"/>
			<path fill="#231F20" d="M8.116,9.382H4.793V4.398c0-0.525-0.426-0.952-0.951-0.952C3.318,3.445,2.893,3.872,2.893,4.398v11.75
				c0,0.523,0.426,0.949,0.949,0.949c0.525,0,0.951-0.426,0.951-0.949V11.28h3.323c0.524,0,0.948-0.425,0.948-0.95
				C9.064,9.807,8.64,9.382,8.116,9.382z"/>
		</g>
		<path fill="#231F20" d="M14.278,9.83c0-0.256,0.104-0.45,0.312-0.583l1.463-1.117c0.098-0.083,0.21-0.123,0.337-0.123
			c0.181,0,0.346,0.05,0.495,0.148c0.147,0.099,0.223,0.226,0.223,0.373v8.06c0,0.157-0.079,0.28-0.241,0.373
			c-0.16,0.09-0.349,0.135-0.563,0.135c-0.223,0-0.415-0.047-0.57-0.135c-0.158-0.093-0.235-0.216-0.235-0.373V9.966l-0.396,0.396
			c-0.084,0.075-0.182,0.111-0.298,0.111c-0.149,0-0.273-0.066-0.373-0.199C14.329,10.143,14.278,9.995,14.278,9.83z"/>
	</g>
</g>
<g id="h2" display="none">
	<g display="inline">
		<g>
			<path fill="#231F20" d="M9.854,3.228c-0.521,0-0.942,0.423-0.942,0.942v11.662c0,0.521,0.422,0.941,0.942,0.941
				s0.942-0.42,0.942-0.941V4.17C10.796,3.651,10.374,3.228,9.854,3.228z"/>
			<path fill="#231F20" d="M7.184,9.117H3.886V4.17c0-0.522-0.423-0.945-0.943-0.945S2,3.648,2,4.17v11.662
				c0,0.52,0.422,0.941,0.942,0.941s0.943-0.422,0.943-0.941v-4.83h3.298c0.52,0,0.942-0.423,0.942-0.942
				C8.126,9.538,7.704,9.117,7.184,9.117z"/>
		</g>
		<path fill="#231F20" d="M12.521,16.268v-1.199c0-0.361,0.125-0.723,0.373-1.076c0.248-0.355,0.549-0.678,0.899-0.967l1.183-0.855
			c0.387-0.288,0.717-0.596,0.989-0.918c0.271-0.32,0.408-0.646,0.408-0.969c0-0.289-0.099-0.545-0.292-0.769
			c-0.191-0.221-0.479-0.334-0.857-0.334c-0.322,0-0.586,0.094-0.793,0.279s-0.31,0.464-0.31,0.836c0,0.159-0.076,0.305-0.226,0.423
			c-0.148,0.125-0.35,0.187-0.602,0.187c-0.477,0-0.714-0.288-0.714-0.863c0-0.671,0.26-1.219,0.78-1.637
			c0.522-0.418,1.14-0.627,1.848-0.627c0.747,0,1.396,0.224,1.941,0.673c0.547,0.447,0.82,1.043,0.82,1.786
			c0,0.495-0.134,0.961-0.398,1.394c-0.27,0.437-0.596,0.804-0.982,1.106c-0.386,0.3-0.771,0.578-1.154,0.836
			s-0.707,0.515-0.976,0.771c-0.269,0.257-0.401,0.503-0.401,0.732v0.299h3.434c0.131,0,0.249,0.065,0.354,0.201
			C17.947,15.709,18,15.871,18,16.059c0,0.189-0.051,0.355-0.15,0.5c-0.101,0.146-0.215,0.213-0.344,0.213h-4.294
			c-0.153,0-0.308-0.047-0.46-0.146S12.521,16.406,12.521,16.268z"/>
	</g>
</g>
<g id="h3" display="none">
	<g display="inline">
		<g>
			<path fill="#231F20" d="M9.704,3.357c-0.51,0-0.924,0.415-0.924,0.925v11.438c0,0.512,0.414,0.924,0.924,0.924
				c0.511,0,0.924-0.412,0.924-0.924V4.282C10.627,3.772,10.214,3.357,9.704,3.357z"/>
			<path fill="#231F20" d="M7.084,9.134H3.85V4.282c0-0.512-0.415-0.927-0.925-0.927C2.414,3.355,2,3.771,2,4.282v11.438
				c0,0.508,0.414,0.924,0.924,0.924c0.51,0,0.925-0.416,0.925-0.924v-4.738h3.235c0.511,0,0.924-0.416,0.924-0.924
				C8.009,9.547,7.595,9.134,7.084,9.134z"/>
		</g>
		<path fill="#231F20" d="M12.326,14.447c0-0.233,0.056-0.396,0.168-0.483c0.115-0.087,0.309-0.132,0.58-0.132
			c0.313,0,0.527,0.043,0.64,0.127c0.113,0.085,0.169,0.227,0.169,0.43c0,0.273,0.112,0.488,0.338,0.646
			c0.227,0.157,0.53,0.233,0.918,0.233c0.45,0,0.778-0.101,0.982-0.306c0.204-0.206,0.309-0.538,0.309-0.998v-0.229
			c0-0.764-0.441-1.146-1.328-1.146c-0.307,0-0.459-0.205-0.459-0.614c0-0.414,0.155-0.619,0.467-0.619
			c0.354,0,0.625-0.078,0.815-0.232c0.191-0.156,0.287-0.473,0.287-0.943c0-0.703-0.354-1.057-1.063-1.057
			c-0.717,0-1.072,0.27-1.072,0.807c0,0.4-0.25,0.597-0.748,0.597c-0.34,0-0.559-0.043-0.658-0.135
			c-0.104-0.092-0.148-0.271-0.148-0.535c0-0.233,0.043-0.467,0.131-0.695c0.088-0.231,0.228-0.455,0.418-0.675
			c0.188-0.217,0.465-0.396,0.826-0.53c0.36-0.137,0.785-0.207,1.268-0.207c1.706,0,2.561,0.724,2.561,2.169
			c0,0.479-0.084,0.899-0.25,1.257s-0.399,0.604-0.701,0.739C17.59,12.236,18,12.844,18,13.736v0.229
			c0,0.917-0.268,1.596-0.803,2.027s-1.234,0.648-2.096,0.648c-0.91,0-1.601-0.224-2.069-0.674
			C12.561,15.518,12.326,15.011,12.326,14.447z"/>
	</g>
</g>
<g id="h4" display="none">
	<g display="inline">
		<g>
			<path fill="#231F20" d="M9.522,3.515c-0.498,0-0.902,0.405-0.902,0.902v11.169c0,0.499,0.404,0.902,0.902,0.902
				c0.499,0,0.903-0.403,0.903-0.902V4.417C10.425,3.92,10.021,3.515,9.522,3.515z"/>
			<path fill="#231F20" d="M6.965,9.154H3.807V4.417c0-0.5-0.405-0.905-0.904-0.905S2,3.917,2,4.417v11.169
				c0,0.497,0.404,0.902,0.902,0.902c0.499,0,0.904-0.405,0.904-0.902V10.96h3.158c0.499,0,0.902-0.405,0.902-0.902
				C7.867,9.558,7.464,9.154,6.965,9.154z"/>
		</g>
		<path fill="#231F20" d="M12.084,14.02c0-0.101,0.027-0.201,0.08-0.304l2.795-5.447C15.084,8.004,15.3,7.87,15.607,7.87
			c0.156,0,0.322,0.058,0.5,0.17c0.178,0.115,0.266,0.256,0.266,0.42c0,0.055-0.02,0.124-0.059,0.2l-2.265,4.525h1.382v-1.295
			c0-0.166,0.071-0.291,0.223-0.38c0.148-0.087,0.328-0.129,0.543-0.129c0.212,0,0.392,0.042,0.541,0.129
			c0.15,0.089,0.224,0.214,0.224,0.38v1.295h0.556c0.149,0,0.269,0.065,0.354,0.199C17.957,13.521,18,13.68,18,13.863
			c0,0.173-0.048,0.324-0.146,0.461c-0.1,0.138-0.211,0.207-0.336,0.207h-0.556v1.449c0,0.155-0.073,0.28-0.224,0.371
			c-0.149,0.09-0.329,0.133-0.541,0.133c-0.204,0-0.385-0.043-0.536-0.133c-0.154-0.094-0.229-0.216-0.229-0.371v-1.449h-2.83
			c-0.146,0-0.271-0.047-0.369-0.141C12.132,14.299,12.084,14.174,12.084,14.02z"/>
	</g>
</g>
<g id="h5" display="none">
	<g display="inline">
		<g>
			<path fill="#231F20" d="M9.473,3.556c-0.495,0-0.896,0.402-0.896,0.897v11.094c0,0.495,0.401,0.896,0.896,0.896
				c0.495,0,0.896-0.401,0.896-0.896V4.453C10.368,3.958,9.967,3.556,9.473,3.556z"/>
			<path fill="#231F20" d="M6.932,9.159H3.794V4.453c0-0.497-0.402-0.899-0.898-0.899C2.401,3.554,2,3.956,2,4.453v11.094
				c0,0.495,0.401,0.896,0.896,0.896c0.496,0,0.898-0.401,0.898-0.896v-4.595h3.137c0.496,0,0.897-0.402,0.897-0.896
				C7.829,9.56,7.427,9.159,6.932,9.159z"/>
		</g>
		<path fill="#231F20" d="M12.504,14.323c0-0.257,0.064-0.438,0.188-0.538c0.125-0.102,0.318-0.152,0.574-0.152
			c0.299,0,0.498,0.051,0.604,0.152c0.104,0.101,0.157,0.244,0.157,0.433c0,0.281,0.113,0.503,0.338,0.657
			c0.227,0.154,0.518,0.232,0.867,0.232c0.828,0,1.24-0.435,1.24-1.301v-0.222c0-0.438-0.105-0.767-0.318-0.981
			c-0.219-0.221-0.518-0.33-0.908-0.33h-1.73c-0.227,0-0.385-0.051-0.477-0.15c-0.09-0.102-0.135-0.246-0.135-0.441
			c0-0.031,0.014-0.08,0.041-0.146c0.025-0.065,0.041-0.117,0.041-0.156l0.236-3.085c0.021-0.32,0.119-0.48,0.291-0.48h3.604
			c0.144,0,0.253,0.066,0.333,0.199c0.082,0.135,0.123,0.291,0.123,0.469c0,0.181-0.041,0.336-0.123,0.469
			c-0.08,0.132-0.189,0.198-0.332,0.198h-2.623l-0.15,1.934h0.898c0.837,0,1.506,0.201,2.004,0.602
			c0.498,0.402,0.75,1.037,0.75,1.902v0.225c0,0.902-0.252,1.57-0.75,1.994c-0.498,0.426-1.16,0.643-1.979,0.643
			c-0.852,0-1.524-0.213-2.02-0.629C12.754,15.398,12.504,14.9,12.504,14.323z"/>
	</g>
</g>
<g id="h6" display="none">
	<g display="inline">
		<g>
			<path fill="#231F20" d="M9.414,3.608c-0.492,0-0.89,0.399-0.89,0.889v11.006c0,0.492,0.398,0.892,0.89,0.892
				c0.49,0,0.889-0.397,0.889-0.892V4.498C10.302,4.007,9.903,3.608,9.414,3.608z"/>
			<path fill="#231F20" d="M6.893,9.167H3.78v-4.67c0-0.492-0.399-0.892-0.891-0.892C2.397,3.605,2,4.005,2,4.498v11.006
				c0,0.49,0.398,0.891,0.889,0.891c0.491,0,0.891-0.398,0.891-0.891v-4.559h3.113c0.491,0,0.89-0.398,0.89-0.889
				C7.782,9.564,7.384,9.167,6.893,9.167z"/>
		</g>
		<path fill="#231F20" d="M12.553,13.734v-3.243c0-0.921,0.254-1.595,0.762-2.021c0.506-0.426,1.187-0.637,2.039-0.637
			c0.857,0,1.517,0.213,1.967,0.644C17.773,8.906,18,9.4,18,9.958c0,0.231-0.057,0.395-0.169,0.488
			c-0.112,0.093-0.293,0.139-0.54,0.139c-0.525,0-0.791-0.191-0.791-0.57c0-0.263-0.113-0.472-0.344-0.626
			c-0.227-0.154-0.508-0.233-0.842-0.233c-0.847,0-1.268,0.444-1.268,1.336v1.266c0.332-0.395,0.85-0.592,1.545-0.592
			c0.729,0,1.313,0.188,1.748,0.559c0.438,0.373,0.656,0.986,0.656,1.85v0.16c0,0.924-0.246,1.598-0.739,2.021
			c-0.489,0.43-1.149,0.643-1.979,0.643c-0.827,0-1.489-0.213-1.985-0.643C12.8,15.328,12.553,14.656,12.553,13.734z M14.051,13.852
			c0,0.904,0.411,1.357,1.231,1.357c0.805,0,1.208-0.453,1.208-1.357V13.7c0-0.898-0.406-1.349-1.221-1.349
			c-0.813,0-1.221,0.412-1.221,1.239L14.051,13.852L14.051,13.852z"/>
	</g>
</g>
<g id="check" display="none">
	<path display="inline" fill="#231F20" d="M7,16.999c-0.3,0-0.5-0.101-0.7-0.299l-6-6c-0.398-0.4-0.398-1,0-1.4
		c0.4-0.398,1-0.398,1.4,0L7,14.602L18.3,3.3c0.4-0.398,1-0.398,1.4,0c0.399,0.4,0.399,1,0,1.4l-12,12
		C7.5,16.898,7.3,16.999,7,16.999z"/>
</g>
<g id="strike" display="none">
	<path display="inline" fill="#231F20" d="M18.1,11.107H1.9c-0.497,0-0.9-0.447-0.9-1c0-0.552,0.403-1,0.9-1h16.2
		c0.498,0,0.9,0.448,0.9,1C19,10.66,18.598,11.107,18.1,11.107z"/>
	<path display="inline" fill="#231F20" d="M14.966,2.641H8.282c-2.418,0-4.386,1.908-4.386,4.254c0,0.086,0.013,0.169,0.019,0.254
		C3.929,7.367,3.96,7.58,4.009,7.788C4.188,8.141,4.545,8.39,4.968,8.39c0.576,0,1.036-0.453,1.071-1.021
		C6.011,7.252,5.999,7.13,5.992,7.007C5.99,6.969,5.98,6.933,5.98,6.895c0-1.197,1.029-2.171,2.302-2.171h6.684
		c0.575,0,1.042-0.466,1.042-1.042C16.008,3.107,15.541,2.641,14.966,2.641z"/>
	<path display="inline" fill="#231F20" d="M4.938,17.359h6.683c2.419,0,4.387-1.908,4.387-4.254c0-0.086-0.014-0.17-0.02-0.254
		c-0.014-0.22-0.045-0.433-0.094-0.64c-0.18-0.354-0.535-0.604-0.959-0.604c-0.576,0-1.037,0.453-1.07,1.021
		c0.027,0.117,0.039,0.238,0.047,0.362c0.002,0.038,0.012,0.073,0.012,0.112c0,1.196-1.029,2.17-2.303,2.17H4.938
		c-0.575,0-1.042,0.466-1.042,1.041C3.896,16.893,4.363,17.359,4.938,17.359z"/>
</g>
</svg>
